<svg id="visual" viewBox="0 0 960 540" width="960" height="540" xmlns="http://www.w3.org/2000/svg" xmlns:xlink="http://www.w3.org/1999/xlink" version="1.1"><rect x="0" y="0" width="960" height="540" fill="#FF5A00"></rect><defs><linearGradient id="grad1_0" x1="43.8%" y1="100%" x2="100%" y2="0%"><stop offset="14.444444444444446%" stop-color="#ff5a00" stop-opacity="1"></stop><stop offset="85.55555555555554%" stop-color="#ff5a00" stop-opacity="1"></stop></linearGradient></defs><defs><linearGradient id="grad2_0" x1="0%" y1="100%" x2="56.3%" y2="0%"><stop offset="14.444444444444446%" stop-color="#ff5a00" stop-opacity="1"></stop><stop offset="85.55555555555554%" stop-color="#ff5a00" stop-opacity="1"></stop></linearGradient></defs><g transform="translate(960, 540)"><path d="M-432 0C-398.4 -46.2 -364.9 -92.5 -344.6 -142.7C-324.3 -193 -317.4 -247.3 -287.8 -287.8C-258.2 -328.3 -206 -354.9 -154.2 -372.3C-102.5 -389.7 -51.2 -397.9 0 -406L0 0Z" fill="#001521"></path></g><g transform="translate(0, 0)"><path d="M372 0C375.3 50.5 378.7 101 369.6 153.1C360.4 205.2 338.9 258.8 303.3 303.3C267.8 347.9 218.2 383.2 165.3 399.1C112.4 415 56.2 411.5 0 408L0 0Z" fill="#001521"></path></g></svg>